<svg width="20" height="24" viewBox="0 0 20 24" fill="none" xmlns="http://www.w3.org/2000/svg">
<path d="M10.9809 19.9329C11.0779 19.906 11.174 19.8748 11.269 19.8387C11.3278 19.8175 11.3681 19.7531 11.3688 19.68C11.3694 19.6067 11.3301 19.5416 11.2716 19.5189C11.1327 19.4663 10.9976 19.3998 10.8678 19.3204C10.6976 19.2116 10.5571 19.0471 10.4632 18.8461C10.3691 18.645 10.3256 18.416 10.3377 18.1864C10.3776 17.2936 10.3377 15.5221 9.45968 14.9906C9.35508 14.9293 9.23148 14.9346 9.13092 15.0048C9.0304 15.0751 8.9662 15.201 8.96032 15.3396L8.87848 17.4958C8.8684 17.7463 8.92768 17.9937 9.04692 18.2005C9.36468 18.7356 9.73056 19.2279 10.138 19.6684C10.3648 19.9173 10.6805 20.0163 10.9809 19.9329Z" fill="#1E1014"/>
<path d="M6.77411 18.02C6.82255 18.1433 6.88627 18.2574 6.96331 18.3582C7.24223 18.7221 7.96647 19.5813 8.75527 19.8201C8.85179 19.8495 8.94895 19.8805 9.04595 19.9092C9.10827 19.9285 9.17387 19.8965 9.20699 19.8307C9.24007 19.7649 9.23267 19.6809 9.18887 19.6246C8.78575 19.1154 8.43879 18.5467 8.15663 17.9329C8.02715 17.643 7.92535 17.3365 7.85343 17.0194C7.71791 16.42 7.26607 14.9756 6.08231 15.1334C5.97511 15.1475 5.88075 15.2241 5.83063 15.3377C5.78051 15.4514 5.78099 15.5873 5.83203 15.7004C6.02075 16.1194 6.57827 17.5266 6.77411 18.02Z" fill="#1E1014"/>
<path d="M3.94769 16.6999C4.49655 16.7452 5.32943 17.1418 6.33647 18.6659C6.91039 19.5344 7.67395 20.2077 8.55679 20.5484C9.07875 20.7482 9.62507 20.8409 10.1732 20.8231C11.0794 20.7988 11.9593 20.4571 12.7032 19.8407C13.3035 19.3413 13.9593 18.5767 14.1884 17.514C14.2229 17.3474 14.2458 17.1773 14.2568 17.0061C14.2893 16.5642 14.4513 15.1504 15.2179 14.5751C15.3241 14.4944 15.4597 14.4932 15.5672 14.5712C15.6747 14.6495 15.7355 14.7934 15.7239 14.9427C15.6945 15.3247 15.6949 15.8345 15.8248 16.3128C15.8975 16.5703 15.8943 16.8496 15.8158 17.1046C15.6439 17.643 15.5182 18.2006 15.4402 18.769C15.3002 19.8724 15.549 20.9955 16.1277 21.8737C16.4049 22.2978 16.754 22.8906 16.9797 23.4911C17.0218 23.6025 17.0136 23.7318 16.9581 23.8343C16.9025 23.937 16.8071 23.9994 16.7045 24H12.7968C12.5569 24 12.3247 23.8998 12.1406 23.717C11.8325 23.4116 11.4484 23.2356 11.0477 23.2165L9.17699 23.1272C8.94895 23.1165 8.72807 23.0298 8.53931 22.8768C8.05851 22.4876 7.03151 21.7155 6.07039 21.3794C5.79287 21.2798 5.57007 21.032 5.46799 20.7093C5.22975 19.9685 4.69171 18.5959 3.68825 17.3779C3.59203 17.2597 3.56636 17.0834 3.62359 16.9335C3.68098 16.7838 3.80955 16.6911 3.94769 16.6999Z" fill="#1E1014"/>
<path d="M2.96162 10.3607C2.44925 9.58088 1.61888 8.38502 0.844788 7.56742C0.500596 7.20217 0.246882 6.73186 0.111365 6.20715C-0.0241478 5.68248 -0.0362143 5.12377 0.0764048 4.59155C0.206346 3.96471 0.440244 3.325 0.842144 2.85244C1.02902 2.63503 1.27233 2.49898 1.5324 2.46639C1.79244 2.43381 2.05419 2.50671 2.27509 2.67313C2.57318 2.89478 2.84298 3.16614 3.07639 3.47874C3.2447 3.70868 3.34432 3.99843 3.3601 4.30275C3.37572 4.60706 3.30642 4.90893 3.16302 5.16173C3.10547 5.26484 3.04561 5.37364 2.98667 5.48959C2.74148 5.97559 2.68981 6.56622 2.84559 7.10191C3.05783 7.83333 3.35625 9.01484 3.44674 10.1317C3.45912 10.2753 3.38966 10.4114 3.27688 10.4646C3.16411 10.5179 3.03541 10.4754 2.96162 10.3607Z" fill="#026842"/>
<path d="M5.1167 1.3016C5.73962 1.97478 6.73888 2.99879 7.62552 3.6604C8.02001 3.95626 8.34118 4.37257 8.55405 4.86456C8.76691 5.3565 8.86322 5.90503 8.83261 6.45071C8.79922 7.09289 8.6653 7.76715 8.3405 8.30797C8.18913 8.55716 7.96982 8.73666 7.71836 8.81729C7.46694 8.89791 7.19788 8.87487 6.95498 8.75202C6.62763 8.58912 6.32066 8.37193 6.04333 8.10731C5.84268 7.91202 5.70069 7.64497 5.63915 7.34791C5.57777 7.05083 5.60049 6.74032 5.70366 6.46436C5.74481 6.35198 5.78738 6.23356 5.82797 6.10825C5.99625 5.58342 5.95795 4.99154 5.72345 4.49251C5.40371 3.81105 4.93101 2.70197 4.67306 1.61781C4.63916 1.47856 4.68708 1.33149 4.79022 1.25801C4.89332 1.18436 5.02663 1.20228 5.1167 1.3016Z" fill="#026842"/>
<path d="M18.6566 3.636C18.1156 3.76745 17.3571 4.20301 17.2154 5.58039C17.1859 5.88821 17.2109 6.20004 17.2887 6.49573C17.455 7.14377 17.7336 8.67821 17.1925 10.2761L16.5259 12.3159C16.4393 12.5793 16.736 12.7798 16.8807 12.5541C17.7036 11.282 18.9294 9.21279 19.6172 7.24461C19.6172 7.24461 20.1036 5.82195 19.9798 4.73581C19.8941 3.98525 19.2803 3.48397 18.6566 3.636Z" fill="#026842"/>
<path d="M12.1476 9.28218C12.7013 9.27281 13.5225 9.01341 13.9078 7.69479C13.9918 7.39964 14.023 7.0885 13.9996 6.78153C13.9526 6.10969 13.954 4.54434 14.7701 3.09777L15.7882 1.24592C15.9202 1.00684 15.6653 0.744827 15.4832 0.93412C14.4491 1.99912 12.8776 3.75637 11.8515 5.53342C11.8515 5.53342 11.1204 6.82032 11.0474 7.91211C10.9972 8.66663 11.5091 9.29346 12.1476 9.28218Z" fill="#026842"/>
<path d="M15.7249 8.9502C15.3745 8.83478 15.0319 9.05331 14.8295 9.39091C14.7681 9.47158 14.7121 9.55771 14.6618 9.64864C14.5635 9.82704 14.4855 10.0358 14.4843 10.2518C14.4843 10.6492 14.7822 10.9456 15.1027 10.9374C15.4622 10.9285 15.7901 10.6739 15.988 10.3276C16.2411 9.88744 16.2459 9.12144 15.7249 8.9502Z" fill="#026842"/>
<path d="M5.70881 10.3528C5.66937 10.2771 5.62433 10.2059 5.57453 10.1394C5.47801 10.0001 5.34141 9.90819 5.19121 9.88166C4.95265 9.84561 4.72693 10.0199 4.65765 10.2941C4.61169 10.493 4.65453 10.7276 4.72649 10.9384C4.74813 11.0043 4.76981 11.0678 4.79409 11.126C4.86245 11.3134 4.96177 11.4826 5.08601 11.6234C5.14693 11.6882 5.22197 11.7309 5.30257 11.7466C5.38177 11.7867 5.46529 11.8134 5.55069 11.8259C5.86597 11.8734 6.05409 11.4388 5.99557 11.1306C5.94253 10.8519 5.84525 10.5879 5.70881 10.3528Z" fill="#026842"/>
<path d="M10.2702 11.1424C10.2308 11.0668 10.1857 10.9956 10.1359 10.9291C10.0394 10.7897 9.90281 10.6979 9.75261 10.6713C9.51405 10.6353 9.28833 10.8096 9.21905 11.0837C9.17309 11.2827 9.21593 11.5173 9.28789 11.728C9.30953 11.794 9.33121 11.8575 9.35549 11.9156C9.42385 12.1031 9.52317 12.2723 9.64741 12.4131C9.70833 12.4779 9.78337 12.5206 9.86397 12.5363C9.94317 12.5764 10.0267 12.6031 10.1121 12.6156C10.4274 12.6631 10.6155 12.2284 10.557 11.9203C10.5039 11.6416 10.4067 11.3776 10.2702 11.1424Z" fill="#026842"/>
<path d="M10.7651 0.649835C10.7074 0.546525 10.6416 0.449224 10.5687 0.358418C10.4276 0.168126 10.2278 0.0426619 10.0082 0.00642457C9.65927 -0.0428024 9.32917 0.19526 9.22786 0.569652C9.16064 0.841401 9.22329 1.16177 9.32853 1.44961C9.36018 1.53962 9.39188 1.62636 9.42739 1.70582C9.52736 1.96179 9.67261 2.19287 9.8543 2.38522C9.9434 2.47372 10.0531 2.53205 10.171 2.55342C10.2868 2.60823 10.409 2.64465 10.5339 2.66177C10.9949 2.72665 11.2701 2.13302 11.1845 1.71213C11.1069 1.33148 10.9646 0.970933 10.7651 0.649835Z" fill="#026842"/>
</svg>
